<svg width="300" height="300" viewBox="0 0 300 300" fill="none" xmlns="http://www.w3.org/2000/svg">
<circle cx="150" cy="150" r="132" stroke="black" stroke-width="8"/>
<circle cx="150" cy="150" r="150" fill="#20604F"/>
<ellipse cx="47.1347" cy="30.7771" rx="47.1347" ry="30.7771" transform="matrix(0.946938 -0.321415 0.320681 0.947187 133.375 233.739)" fill="#A0BCB1"/>
<ellipse cx="47.1377" cy="30.7751" rx="47.1377" ry="30.7751" transform="matrix(0.916823 0.399294 -0.398426 0.917201 75.8164 199.678)" fill="#A0BCB1"/>
<ellipse cx="47.1904" cy="29.1312" rx="47.1904" ry="29.1312" transform="matrix(0.347738 -0.937592 0.937297 0.348532 199.859 230.568)" fill="#A0BCB1"/>
<ellipse cx="47.1902" cy="29.2333" rx="47.1902" ry="29.2333" transform="matrix(-0.302965 -0.953002 0.952741 -0.303783 235.424 172.23)" fill="#A0BCB1"/>
<ellipse cx="47.141" cy="30.7729" rx="47.141" ry="30.7729" transform="matrix(-0.887224 -0.461338 0.460376 -0.887724 222.82 105.078)" fill="#A0BCB1"/>
<ellipse cx="47.1409" cy="30.773" rx="47.1409" ry="30.773" transform="matrix(-0.929318 0.36928 -0.368274 -0.929717 168.281 65.0312)" fill="#A0BCB1"/>
<ellipse cx="47.1838" cy="29.8097" rx="47.1838" ry="29.8097" transform="matrix(-0.483305 0.875452 -0.874905 -0.484295 101.393 84.0215)" fill="#A0BCB1"/>
<ellipse cx="47.1894" cy="29.8062" rx="47.1894" ry="29.8062" transform="matrix(0.284957 0.95854 -0.958284 0.285819 68.4434 135.365)" fill="#A0BCB1"/>
<circle cx="150" cy="150" r="136" stroke="#012E22" stroke-width="10"/>
<circle cx="150" cy="150" r="99" stroke="#012E22" stroke-width="12"/>
<ellipse cx="5.71466" cy="7.63007" rx="5.71466" ry="7.63007" transform="matrix(0.990788 0.135419 -0.135022 0.990843 135.008 255.2)" fill="#588F80"/>
<ellipse cx="5.7151" cy="7.62949" rx="5.7151" ry="7.62949" transform="matrix(0.963253 0.268596 -0.267852 0.96346 120.939 251.787)" fill="#588F80"/>
<ellipse cx="5.7158" cy="7.62856" rx="5.7158" ry="7.62856" transform="matrix(0.917914 0.39678 -0.395781 0.918345 106.463 246.496)" fill="#588F80"/>
<ellipse cx="5.7167" cy="7.62736" rx="5.7167" ry="7.62736" transform="matrix(0.855626 0.517594 -0.516461 0.85631 92.8262 239.425)" fill="#588F80"/>
<ellipse cx="5.71775" cy="7.62596" rx="5.71775" ry="7.62596" transform="matrix(0.777561 0.628808 -0.627671 0.778479 81.2637 230.705)" fill="#588F80"/>
<ellipse cx="5.71885" cy="7.62449" rx="5.71885" ry="7.62449" transform="matrix(0.685179 0.728375 -0.727352 0.686265 69.9863 220.496)" fill="#588F80"/>
<ellipse cx="5.71994" cy="7.62304" rx="5.71994" ry="7.62304" transform="matrix(0.580201 0.814474 -0.813652 0.581352 61.1855 208.986)" fill="#588F80"/>
<ellipse cx="5.72093" cy="7.62171" rx="5.72093" ry="7.62171" transform="matrix(0.464574 0.885535 -0.884962 0.465664 54.0215 196.389)" fill="#588F80"/>
<ellipse cx="5.72175" cy="7.62062" rx="5.72175" ry="7.62062" transform="matrix(0.340432 0.940269 -0.939943 0.341333 48.6289 182.936)" fill="#588F80"/>
<ellipse cx="5.72234" cy="7.61983" rx="5.72234" ry="7.61983" transform="matrix(0.210059 0.977689 -0.97756 0.21066 45.1074 168.874)" fill="#588F80"/>
<ellipse cx="5.72266" cy="7.61941" rx="5.72266" ry="7.61941" transform="matrix(0.0758432 0.99712 -0.997103 0.076069 43.5195 154.465)" fill="#588F80"/>
<ellipse cx="5.72268" cy="7.61939" rx="5.72268" ry="7.61939" transform="matrix(-0.0597591 0.998213 -0.998202 -0.0599374 43.8945 139.973)" fill="#588F80"/>
<ellipse cx="5.7224" cy="7.61976" rx="5.7224" ry="7.61976" transform="matrix(-0.194269 0.980949 -0.980838 -0.194829 46.2285 125.665)" fill="#588F80"/>
<ellipse cx="5.72184" cy="7.62051" rx="5.72184" ry="7.62051" transform="matrix(-0.325226 0.945637 -0.945337 -0.326096 50.4766 111.807)" fill="#588F80"/>
<ellipse cx="5.72104" cy="7.62157" rx="5.72104" ry="7.62157" transform="matrix(-0.450229 0.892913 -0.892371 -0.451303 56.5605 98.6523)" fill="#588F80"/>
<ellipse cx="5.72007" cy="7.62287" rx="5.72007" ry="7.62287" transform="matrix(-0.566983 0.82373 -0.822937 -0.568133 64.3672 86.4443)" fill="#588F80"/>
<ellipse cx="5.71899" cy="7.62431" rx="5.71899" ry="7.62431" transform="matrix(-0.673332 0.739341 -0.738338 -0.674431 73.7539 75.4092)" fill="#588F80"/>
<ellipse cx="5.71788" cy="7.62579" rx="5.71788" ry="7.62579" transform="matrix(-0.767305 0.641283 -0.640154 -0.768247 84.5469 65.749)" fill="#588F80"/>
<ellipse cx="5.71682" cy="7.6272" rx="5.71682" ry="7.6272" transform="matrix(-0.847153 0.53135 -0.53021 -0.847867 96.5488 57.6426)" fill="#588F80"/>
<ellipse cx="5.7159" cy="7.62843" rx="5.7159" ry="7.62843" transform="matrix(-0.911382 0.411563 -0.410541 -0.911843 109.535 51.2393)" fill="#588F80"/>
<ellipse cx="5.71517" cy="7.6294" rx="5.71517" ry="7.6294" transform="matrix(-0.958786 0.284132 -0.283352 -0.959017 123.268 46.6572)" fill="#588F80"/>
<ellipse cx="5.7147" cy="7.63002" rx="5.7147" ry="7.63002" transform="matrix(-0.98847 0.15142 -0.150978 -0.988538 137.494 43.9814)" fill="#588F80"/>
<ellipse cx="5.71451" cy="7.63027" rx="5.71451" ry="7.63027" transform="matrix(-0.999874 0.0158907 -0.0158432 -0.999875 151.953 43.2598)" fill="#588F80"/>
<ellipse cx="5.71463" cy="7.63012" rx="5.71463" ry="7.63012" transform="matrix(-0.992783 -0.119934 0.119581 -0.992825 166.373 44.5078)" fill="#588F80"/>
<ellipse cx="5.71504" cy="7.62958" rx="5.71504" ry="7.62958" transform="matrix(-0.967329 -0.253528 0.252819 -0.967514 180.494 47.7012)" fill="#588F80"/>
<ellipse cx="5.71571" cy="7.62868" rx="5.71571" ry="7.62868" transform="matrix(-0.923995 -0.382407 0.381432 -0.924398 194.051 52.7812)" fill="#588F80"/>
<ellipse cx="5.71659" cy="7.62751" rx="5.71659" ry="7.62751" transform="matrix(-0.863597 -0.504184 0.50306 -0.864253 206.797 59.6533)" fill="#588F80"/>
<ellipse cx="5.71762" cy="7.62613" rx="5.71762" ry="7.62613" transform="matrix(-0.787273 -0.616606 0.615463 -0.788167 218.494 68.1924)" fill="#588F80"/>
<ellipse cx="5.71873" cy="7.62466" rx="5.71873" ry="7.62466" transform="matrix(-0.69645 -0.717606 0.716565 -0.697522 228.93 78.2393)" fill="#588F80"/>
<ellipse cx="5.71982" cy="7.6232" rx="5.71982" ry="7.6232" transform="matrix(-0.592822 -0.805335 0.804487 -0.593971 237.908 89.6104)" fill="#588F80"/>
<ellipse cx="5.72083" cy="7.62185" rx="5.72083" ry="7.62185" transform="matrix(-0.478311 -0.878191 0.877589 -0.479415 245.268 102.095)" fill="#588F80"/>
<ellipse cx="5.72167" cy="7.62073" rx="5.72167" ry="7.62073" transform="matrix(-0.355033 -0.934855 0.934501 -0.355962 250.867 115.462)" fill="#588F80"/>
<ellipse cx="5.72229" cy="7.6199" rx="5.72229" ry="7.6199" transform="matrix(-0.225254 -0.974301 0.974153 -0.225895 254.609 129.467)" fill="#588F80"/>
<ellipse cx="5.72264" cy="7.61944" rx="5.72264" ry="7.61944" transform="matrix(-0.0913555 -0.995819 0.995794 -0.0916268 256.422 143.85)" fill="#588F80"/>
<ellipse cx="5.72269" cy="7.61937" rx="5.72269" ry="7.61937" transform="matrix(0.0442136 -0.999023 0.999017 0.0443458 256.27 158.346)" fill="#588F80"/>
<ellipse cx="5.72244" cy="7.6197" rx="5.72244" ry="7.6197" transform="matrix(0.178974 -0.983855 0.98376 0.179493 254.16 172.688)" fill="#588F80"/>
<ellipse cx="5.72191" cy="7.6204" rx="5.72191" ry="7.6204" transform="matrix(0.310462 -0.950587 0.950312 0.311302 250.129 186.611)" fill="#588F80"/>
<ellipse cx="5.72114" cy="7.62143" rx="5.72114" ry="7.62143" transform="matrix(0.436268 -0.899818 0.899305 0.437325 244.25 199.859)" fill="#588F80"/>
<ellipse cx="5.72019" cy="7.62271" rx="5.72019" ry="7.62271" transform="matrix(0.55408 -0.832465 0.831699 0.555228 236.633 212.188)" fill="#588F80"/>
<ellipse cx="5.71911" cy="7.62414" rx="5.71911" ry="7.62414" transform="matrix(0.661726 -0.749747 0.748764 0.662838 226.42 223.368)" fill="#588F80"/>
<ellipse cx="5.718" cy="7.62562" rx="5.718" ry="7.62562" transform="matrix(0.757213 -0.65317 0.65205 0.758178 215.777 233.195)" fill="#588F80"/>
<ellipse cx="5.71694" cy="7.62704" rx="5.71694" ry="7.62704" transform="matrix(0.838762 -0.5445 0.543355 0.839504 203.904 241.488)" fill="#588F80"/>
<ellipse cx="5.71599" cy="7.6283" rx="5.71599" ry="7.6283" transform="matrix(0.904849 -0.425734 0.424693 0.905339 191.02 248.094)" fill="#588F80"/>
<ellipse cx="5.71524" cy="7.6293" rx="5.71524" ry="7.6293" transform="matrix(0.954234 -0.299063 0.298249 0.954489 177.359 252.889)" fill="#588F80"/>
<ellipse cx="5.71474" cy="7.62997" rx="5.71474" ry="7.62997" transform="matrix(0.985986 -0.166833 0.166348 0.986068 163.176 255.787)" fill="#588F80"/>
<ellipse cx="5.71452" cy="7.63026" rx="5.71452" ry="7.63026" transform="matrix(0.999505 -0.0314992 0.0314053 0.999508 148.732 256.733)" fill="#588F80"/>
<circle cx="150" cy="150" r="72" fill="#A0BCB1"/>
<circle cx="150" cy="150" r="60" fill="#357463"/>
<g filter="url(#filter0_i_981_5063)">
<circle cx="150" cy="150" r="21" fill="#588F80"/>
</g>
<g filter="url(#filter1_f_981_5063)">
<circle cx="156" cy="145" r="5" fill="#BEE4D6" fill-opacity="0.8"/>
</g>
<g filter="url(#filter2_i_981_5063)">
<circle cx="145.158" cy="183.354" r="7" fill="#588F80"/>
</g>
<g filter="url(#filter3_f_981_5063)">
<circle cx="147.159" cy="181.688" r="1.66667" fill="#BEE4D6" fill-opacity="0.8"/>
</g>
<g filter="url(#filter4_i_981_5063)">
<circle cx="167.686" cy="178.819" r="7" fill="#588F80"/>
</g>
<g filter="url(#filter5_f_981_5063)">
<circle cx="169.686" cy="177.153" r="1.66667" fill="#BEE4D6" fill-opacity="0.8"/>
</g>
<g filter="url(#filter6_i_981_5063)">
<circle cx="181.414" cy="163.159" r="7" fill="#588F80"/>
</g>
<g filter="url(#filter7_f_981_5063)">
<circle cx="183.415" cy="161.493" r="1.66667" fill="#BEE4D6" fill-opacity="0.8"/>
</g>
<g filter="url(#filter8_i_981_5063)">
<circle cx="183.281" cy="143.896" r="7" fill="#588F80"/>
</g>
<g filter="url(#filter9_f_981_5063)">
<circle cx="185.282" cy="142.23" r="1.66667" fill="#BEE4D6" fill-opacity="0.8"/>
</g>
<g filter="url(#filter10_i_981_5063)">
<circle cx="173.834" cy="125.305" r="7" fill="#588F80"/>
</g>
<g filter="url(#filter11_f_981_5063)">
<circle cx="175.835" cy="123.638" r="1.66667" fill="#BEE4D6" fill-opacity="0.8"/>
</g>
<g filter="url(#filter12_i_981_5063)">
<circle cx="154.383" cy="115.308" r="7" fill="#588F80"/>
</g>
<g filter="url(#filter13_f_981_5063)">
<circle cx="156.383" cy="113.641" r="1.66667" fill="#BEE4D6" fill-opacity="0.8"/>
</g>
<g filter="url(#filter14_i_981_5063)">
<circle cx="133.518" cy="119.301" r="7" fill="#588F80"/>
</g>
<g filter="url(#filter15_f_981_5063)">
<circle cx="135.518" cy="117.634" r="1.66667" fill="#BEE4D6" fill-opacity="0.8"/>
</g>
<g filter="url(#filter16_i_981_5063)">
<circle cx="118.465" cy="134.044" r="7" fill="#588F80"/>
</g>
<g filter="url(#filter17_f_981_5063)">
<circle cx="120.465" cy="132.378" r="1.66667" fill="#BEE4D6" fill-opacity="0.8"/>
</g>
<g filter="url(#filter18_i_981_5063)">
<circle cx="116.057" cy="155.645" r="7" fill="#588F80"/>
</g>
<g filter="url(#filter19_f_981_5063)">
<circle cx="118.057" cy="153.978" r="1.66667" fill="#BEE4D6" fill-opacity="0.8"/>
</g>
<g filter="url(#filter20_i_981_5063)">
<circle cx="126.166" cy="174.695" r="7" fill="#588F80"/>
</g>
<g filter="url(#filter21_f_981_5063)">
<circle cx="128.167" cy="173.029" r="1.66667" fill="#BEE4D6" fill-opacity="0.8"/>
</g>
<defs>
<filter id="filter0_i_981_5063" x="129" y="126" width="47" height="45" filterUnits="userSpaceOnUse" color-interpolation-filters="sRGB">
<feFlood flood-opacity="0" result="BackgroundImageFix"/>
<feBlend mode="normal" in="SourceGraphic" in2="BackgroundImageFix" result="shape"/>
<feColorMatrix in="SourceAlpha" type="matrix" values="0 0 0 0 0 0 0 0 0 0 0 0 0 0 0 0 0 0 127 0" result="hardAlpha"/>
<feOffset dx="5" dy="-3"/>
<feGaussianBlur stdDeviation="3.75"/>
<feComposite in2="hardAlpha" operator="arithmetic" k2="-1" k3="1"/>
<feColorMatrix type="matrix" values="0 0 0 0 0 0 0 0 0 0 0 0 0 0 0 0 0 0 0.13 0"/>
<feBlend mode="normal" in2="shape" result="effect1_innerShadow_981_5063"/>
</filter>
<filter id="filter1_f_981_5063" x="141.2" y="130.2" width="29.6" height="29.6" filterUnits="userSpaceOnUse" color-interpolation-filters="sRGB">
<feFlood flood-opacity="0" result="BackgroundImageFix"/>
<feBlend mode="normal" in="SourceGraphic" in2="BackgroundImageFix" result="shape"/>
<feGaussianBlur stdDeviation="4.9" result="effect1_foregroundBlur_981_5063"/>
</filter>
<filter id="filter2_i_981_5063" x="138.158" y="175.354" width="15.6667" height="15" filterUnits="userSpaceOnUse" color-interpolation-filters="sRGB">
<feFlood flood-opacity="0" result="BackgroundImageFix"/>
<feBlend mode="normal" in="SourceGraphic" in2="BackgroundImageFix" result="shape"/>
<feColorMatrix in="SourceAlpha" type="matrix" values="0 0 0 0 0 0 0 0 0 0 0 0 0 0 0 0 0 0 127 0" result="hardAlpha"/>
<feOffset dx="1.66667" dy="-1"/>
<feGaussianBlur stdDeviation="1.25"/>
<feComposite in2="hardAlpha" operator="arithmetic" k2="-1" k3="1"/>
<feColorMatrix type="matrix" values="0 0 0 0 0 0 0 0 0 0 0 0 0 0 0 0 0 0 0.13 0"/>
<feBlend mode="normal" in2="shape" result="effect1_innerShadow_981_5063"/>
</filter>
<filter id="filter3_f_981_5063" x="142.226" y="176.755" width="9.86732" height="9.86634" filterUnits="userSpaceOnUse" color-interpolation-filters="sRGB">
<feFlood flood-opacity="0" result="BackgroundImageFix"/>
<feBlend mode="normal" in="SourceGraphic" in2="BackgroundImageFix" result="shape"/>
<feGaussianBlur stdDeviation="1.63333" result="effect1_foregroundBlur_981_5063"/>
</filter>
<filter id="filter4_i_981_5063" x="160.686" y="170.819" width="15.6667" height="15" filterUnits="userSpaceOnUse" color-interpolation-filters="sRGB">
<feFlood flood-opacity="0" result="BackgroundImageFix"/>
<feBlend mode="normal" in="SourceGraphic" in2="BackgroundImageFix" result="shape"/>
<feColorMatrix in="SourceAlpha" type="matrix" values="0 0 0 0 0 0 0 0 0 0 0 0 0 0 0 0 0 0 127 0" result="hardAlpha"/>
<feOffset dx="1.66667" dy="-1"/>
<feGaussianBlur stdDeviation="1.25"/>
<feComposite in2="hardAlpha" operator="arithmetic" k2="-1" k3="1"/>
<feColorMatrix type="matrix" values="0 0 0 0 0 0 0 0 0 0 0 0 0 0 0 0 0 0 0.13 0"/>
<feBlend mode="normal" in2="shape" result="effect1_innerShadow_981_5063"/>
</filter>
<filter id="filter5_f_981_5063" x="164.753" y="172.22" width="9.86732" height="9.86634" filterUnits="userSpaceOnUse" color-interpolation-filters="sRGB">
<feFlood flood-opacity="0" result="BackgroundImageFix"/>
<feBlend mode="normal" in="SourceGraphic" in2="BackgroundImageFix" result="shape"/>
<feGaussianBlur stdDeviation="1.63333" result="effect1_foregroundBlur_981_5063"/>
</filter>
<filter id="filter6_i_981_5063" x="174.414" y="155.159" width="15.6667" height="15" filterUnits="userSpaceOnUse" color-interpolation-filters="sRGB">
<feFlood flood-opacity="0" result="BackgroundImageFix"/>
<feBlend mode="normal" in="SourceGraphic" in2="BackgroundImageFix" result="shape"/>
<feColorMatrix in="SourceAlpha" type="matrix" values="0 0 0 0 0 0 0 0 0 0 0 0 0 0 0 0 0 0 127 0" result="hardAlpha"/>
<feOffset dx="1.66667" dy="-1"/>
<feGaussianBlur stdDeviation="1.25"/>
<feComposite in2="hardAlpha" operator="arithmetic" k2="-1" k3="1"/>
<feColorMatrix type="matrix" values="0 0 0 0 0 0 0 0 0 0 0 0 0 0 0 0 0 0 0.13 0"/>
<feBlend mode="normal" in2="shape" result="effect1_innerShadow_981_5063"/>
</filter>
<filter id="filter7_f_981_5063" x="178.481" y="156.56" width="9.86732" height="9.86634" filterUnits="userSpaceOnUse" color-interpolation-filters="sRGB">
<feFlood flood-opacity="0" result="BackgroundImageFix"/>
<feBlend mode="normal" in="SourceGraphic" in2="BackgroundImageFix" result="shape"/>
<feGaussianBlur stdDeviation="1.63333" result="effect1_foregroundBlur_981_5063"/>
</filter>
<filter id="filter8_i_981_5063" x="176.281" y="135.896" width="15.6667" height="15" filterUnits="userSpaceOnUse" color-interpolation-filters="sRGB">
<feFlood flood-opacity="0" result="BackgroundImageFix"/>
<feBlend mode="normal" in="SourceGraphic" in2="BackgroundImageFix" result="shape"/>
<feColorMatrix in="SourceAlpha" type="matrix" values="0 0 0 0 0 0 0 0 0 0 0 0 0 0 0 0 0 0 127 0" result="hardAlpha"/>
<feOffset dx="1.66667" dy="-1"/>
<feGaussianBlur stdDeviation="1.25"/>
<feComposite in2="hardAlpha" operator="arithmetic" k2="-1" k3="1"/>
<feColorMatrix type="matrix" values="0 0 0 0 0 0 0 0 0 0 0 0 0 0 0 0 0 0 0.13 0"/>
<feBlend mode="normal" in2="shape" result="effect1_innerShadow_981_5063"/>
</filter>
<filter id="filter9_f_981_5063" x="180.349" y="137.297" width="9.86732" height="9.86634" filterUnits="userSpaceOnUse" color-interpolation-filters="sRGB">
<feFlood flood-opacity="0" result="BackgroundImageFix"/>
<feBlend mode="normal" in="SourceGraphic" in2="BackgroundImageFix" result="shape"/>
<feGaussianBlur stdDeviation="1.63333" result="effect1_foregroundBlur_981_5063"/>
</filter>
<filter id="filter10_i_981_5063" x="166.834" y="117.305" width="15.6667" height="15" filterUnits="userSpaceOnUse" color-interpolation-filters="sRGB">
<feFlood flood-opacity="0" result="BackgroundImageFix"/>
<feBlend mode="normal" in="SourceGraphic" in2="BackgroundImageFix" result="shape"/>
<feColorMatrix in="SourceAlpha" type="matrix" values="0 0 0 0 0 0 0 0 0 0 0 0 0 0 0 0 0 0 127 0" result="hardAlpha"/>
<feOffset dx="1.66667" dy="-1"/>
<feGaussianBlur stdDeviation="1.25"/>
<feComposite in2="hardAlpha" operator="arithmetic" k2="-1" k3="1"/>
<feColorMatrix type="matrix" values="0 0 0 0 0 0 0 0 0 0 0 0 0 0 0 0 0 0 0.13 0"/>
<feBlend mode="normal" in2="shape" result="effect1_innerShadow_981_5063"/>
</filter>
<filter id="filter11_f_981_5063" x="170.901" y="118.705" width="9.86732" height="9.86634" filterUnits="userSpaceOnUse" color-interpolation-filters="sRGB">
<feFlood flood-opacity="0" result="BackgroundImageFix"/>
<feBlend mode="normal" in="SourceGraphic" in2="BackgroundImageFix" result="shape"/>
<feGaussianBlur stdDeviation="1.63333" result="effect1_foregroundBlur_981_5063"/>
</filter>
<filter id="filter12_i_981_5063" x="147.383" y="107.308" width="15.6667" height="15" filterUnits="userSpaceOnUse" color-interpolation-filters="sRGB">
<feFlood flood-opacity="0" result="BackgroundImageFix"/>
<feBlend mode="normal" in="SourceGraphic" in2="BackgroundImageFix" result="shape"/>
<feColorMatrix in="SourceAlpha" type="matrix" values="0 0 0 0 0 0 0 0 0 0 0 0 0 0 0 0 0 0 127 0" result="hardAlpha"/>
<feOffset dx="1.66667" dy="-1"/>
<feGaussianBlur stdDeviation="1.25"/>
<feComposite in2="hardAlpha" operator="arithmetic" k2="-1" k3="1"/>
<feColorMatrix type="matrix" values="0 0 0 0 0 0 0 0 0 0 0 0 0 0 0 0 0 0 0.13 0"/>
<feBlend mode="normal" in2="shape" result="effect1_innerShadow_981_5063"/>
</filter>
<filter id="filter13_f_981_5063" x="151.45" y="108.708" width="9.86732" height="9.86634" filterUnits="userSpaceOnUse" color-interpolation-filters="sRGB">
<feFlood flood-opacity="0" result="BackgroundImageFix"/>
<feBlend mode="normal" in="SourceGraphic" in2="BackgroundImageFix" result="shape"/>
<feGaussianBlur stdDeviation="1.63333" result="effect1_foregroundBlur_981_5063"/>
</filter>
<filter id="filter14_i_981_5063" x="126.518" y="111.301" width="15.6667" height="15" filterUnits="userSpaceOnUse" color-interpolation-filters="sRGB">
<feFlood flood-opacity="0" result="BackgroundImageFix"/>
<feBlend mode="normal" in="SourceGraphic" in2="BackgroundImageFix" result="shape"/>
<feColorMatrix in="SourceAlpha" type="matrix" values="0 0 0 0 0 0 0 0 0 0 0 0 0 0 0 0 0 0 127 0" result="hardAlpha"/>
<feOffset dx="1.66667" dy="-1"/>
<feGaussianBlur stdDeviation="1.25"/>
<feComposite in2="hardAlpha" operator="arithmetic" k2="-1" k3="1"/>
<feColorMatrix type="matrix" values="0 0 0 0 0 0 0 0 0 0 0 0 0 0 0 0 0 0 0.13 0"/>
<feBlend mode="normal" in2="shape" result="effect1_innerShadow_981_5063"/>
</filter>
<filter id="filter15_f_981_5063" x="130.585" y="112.701" width="9.86732" height="9.86634" filterUnits="userSpaceOnUse" color-interpolation-filters="sRGB">
<feFlood flood-opacity="0" result="BackgroundImageFix"/>
<feBlend mode="normal" in="SourceGraphic" in2="BackgroundImageFix" result="shape"/>
<feGaussianBlur stdDeviation="1.63333" result="effect1_foregroundBlur_981_5063"/>
</filter>
<filter id="filter16_i_981_5063" x="111.465" y="126.044" width="15.6667" height="15" filterUnits="userSpaceOnUse" color-interpolation-filters="sRGB">
<feFlood flood-opacity="0" result="BackgroundImageFix"/>
<feBlend mode="normal" in="SourceGraphic" in2="BackgroundImageFix" result="shape"/>
<feColorMatrix in="SourceAlpha" type="matrix" values="0 0 0 0 0 0 0 0 0 0 0 0 0 0 0 0 0 0 127 0" result="hardAlpha"/>
<feOffset dx="1.66667" dy="-1"/>
<feGaussianBlur stdDeviation="1.25"/>
<feComposite in2="hardAlpha" operator="arithmetic" k2="-1" k3="1"/>
<feColorMatrix type="matrix" values="0 0 0 0 0 0 0 0 0 0 0 0 0 0 0 0 0 0 0.13 0"/>
<feBlend mode="normal" in2="shape" result="effect1_innerShadow_981_5063"/>
</filter>
<filter id="filter17_f_981_5063" x="115.532" y="127.444" width="9.86732" height="9.86634" filterUnits="userSpaceOnUse" color-interpolation-filters="sRGB">
<feFlood flood-opacity="0" result="BackgroundImageFix"/>
<feBlend mode="normal" in="SourceGraphic" in2="BackgroundImageFix" result="shape"/>
<feGaussianBlur stdDeviation="1.63333" result="effect1_foregroundBlur_981_5063"/>
</filter>
<filter id="filter18_i_981_5063" x="109.057" y="147.645" width="15.6667" height="15" filterUnits="userSpaceOnUse" color-interpolation-filters="sRGB">
<feFlood flood-opacity="0" result="BackgroundImageFix"/>
<feBlend mode="normal" in="SourceGraphic" in2="BackgroundImageFix" result="shape"/>
<feColorMatrix in="SourceAlpha" type="matrix" values="0 0 0 0 0 0 0 0 0 0 0 0 0 0 0 0 0 0 127 0" result="hardAlpha"/>
<feOffset dx="1.66667" dy="-1"/>
<feGaussianBlur stdDeviation="1.25"/>
<feComposite in2="hardAlpha" operator="arithmetic" k2="-1" k3="1"/>
<feColorMatrix type="matrix" values="0 0 0 0 0 0 0 0 0 0 0 0 0 0 0 0 0 0 0.13 0"/>
<feBlend mode="normal" in2="shape" result="effect1_innerShadow_981_5063"/>
</filter>
<filter id="filter19_f_981_5063" x="113.124" y="149.045" width="9.86732" height="9.86634" filterUnits="userSpaceOnUse" color-interpolation-filters="sRGB">
<feFlood flood-opacity="0" result="BackgroundImageFix"/>
<feBlend mode="normal" in="SourceGraphic" in2="BackgroundImageFix" result="shape"/>
<feGaussianBlur stdDeviation="1.63333" result="effect1_foregroundBlur_981_5063"/>
</filter>
<filter id="filter20_i_981_5063" x="119.166" y="166.695" width="15.6667" height="15" filterUnits="userSpaceOnUse" color-interpolation-filters="sRGB">
<feFlood flood-opacity="0" result="BackgroundImageFix"/>
<feBlend mode="normal" in="SourceGraphic" in2="BackgroundImageFix" result="shape"/>
<feColorMatrix in="SourceAlpha" type="matrix" values="0 0 0 0 0 0 0 0 0 0 0 0 0 0 0 0 0 0 127 0" result="hardAlpha"/>
<feOffset dx="1.66667" dy="-1"/>
<feGaussianBlur stdDeviation="1.25"/>
<feComposite in2="hardAlpha" operator="arithmetic" k2="-1" k3="1"/>
<feColorMatrix type="matrix" values="0 0 0 0 0 0 0 0 0 0 0 0 0 0 0 0 0 0 0.13 0"/>
<feBlend mode="normal" in2="shape" result="effect1_innerShadow_981_5063"/>
</filter>
<filter id="filter21_f_981_5063" x="123.233" y="168.096" width="9.86732" height="9.86634" filterUnits="userSpaceOnUse" color-interpolation-filters="sRGB">
<feFlood flood-opacity="0" result="BackgroundImageFix"/>
<feBlend mode="normal" in="SourceGraphic" in2="BackgroundImageFix" result="shape"/>
<feGaussianBlur stdDeviation="1.63333" result="effect1_foregroundBlur_981_5063"/>
</filter>
</defs>
</svg>
